# xmcd
#
# Track frame offsets: 
#        150
#        19170
#        40014
#        56515
#        68195
#        83295
#        96478
#        112108
#        130393
#        162988
#        181936
#        208645
#        223087
#
# Disc length: 3324 seconds
#
# Revision: 2
# Processed by: cddbd v1.5.2PL0 Copyright (c) Steve Scherf et al.
# Submitted via: ExactAudioCopyFreeDBPlugin 1.0
#
DISCID=b50cfa0d
DTITLE=Various Artist - Africa Boogaloo: The Latinization Of West Afr
DTITLE=ica
DYEAR=2009
DGENRE=Latin
TTITLE0=Orchestre OK Jazz - A Moins Que Namikosa
TTITLE1=Gnonnas Pedro - Adigbedoto
TTITLE2=Le Grand Kalle, Don Gonzalo, Manu Dibango - Africa Boogaloo
TTITLE3=Orchestre Yaya Mas - Rampa Rampa
TTITLE4=Charles Lembe - Quiero Wapacha
TTITLE5=Orchestre OK Jazz - Ven Y Ven Y Ven
TTITLE6=Rio Band - Vamos A Bailar
TTITLE7=Laba Sosseh - Guantanamo
TTITLE8=Orchestre Baobab - On Verra Ca
TTITLE9=Orchestre N'Guewel - Mi Guajeo
TTITLE10=Amara Toure - N'Niyo
TTITLE11=Orchestre OK Jazz - Micorrason
TTITLE12=Pierre Tchana and Orchestre Poly Rythmo - Il N'Est Jamais Trop 
TTITLE12=Tard
EXTD=
EXTT0=
EXTT1=
EXTT2=
EXTT3=
EXTT4=
EXTT5=
EXTT6=
EXTT7=
EXTT8=
EXTT9=
EXTT10=
EXTT11=
EXTT12=
PLAYORDER=
